<svg width="456" height="454" viewBox="0 0 456 454" fill="none" xmlns="http://www.w3.org/2000/svg">
<path d="M420.375 37.5969H35.625C23.5125 37.5969 14.25 46.8188 14.25 58.8782V285.878C14.25 297.938 23.5125 307.159 35.625 307.159H420.375C432.488 307.159 441.75 297.938 441.75 285.878V58.8782C441.75 46.8188 432.488 37.5969 420.375 37.5969Z" fill="white"/>
<path d="M43 66H413.5V278.812H43V66Z" fill="#E8E8E8"/>
<path d="M114.712 400.088H341.287V416.403H114.712V400.088Z" fill="#9DE8F7"/>
<path d="M174.562 321.347H281.438V385.9H174.562V321.347Z" fill="white"/>
<path d="M420.375 23.4094H35.625C15.675 23.4094 0 39.0157 0 58.8782V285.878C0 305.741 15.675 321.347 35.625 321.347H160.312V385.9H100.463V430.591H355.538V385.9H295.688V321.347H420.375C440.325 321.347 456 305.741 456 285.878V58.8782C456 39.0157 440.325 23.4094 420.375 23.4094ZM341.288 400.088V416.403H114.713V400.088H341.288ZM174.562 385.9V321.347H281.438V385.9H174.562ZM441.75 285.878C441.75 297.938 432.488 307.159 420.375 307.159H35.625C23.5125 307.159 14.25 297.938 14.25 285.878V58.8782C14.25 46.8188 23.5125 37.5969 35.625 37.5969H420.375C432.488 37.5969 441.75 46.8188 441.75 58.8782V285.878Z" fill="black"/>
<g filter="url(#filter0_d_41_10)">
<path d="M174.305 122.342C175.761 127.317 177.339 132.959 179.037 139.268C180.857 145.456 182.738 151.887 184.679 158.56C186.742 165.233 188.805 171.907 190.867 178.58C192.93 185.253 194.932 191.441 196.873 197.144C198.451 190.956 200.028 184.222 201.605 176.942C203.304 169.662 204.881 162.139 206.337 154.374C207.793 146.609 209.189 138.904 210.523 131.26C211.979 123.495 213.314 116.033 214.527 108.874H244.011C239.765 129.986 234.851 151.401 229.269 173.12C223.809 194.839 217.864 215.465 211.433 235H185.407C181.161 223.352 177.035 211.158 173.031 198.418C169.027 185.557 165.084 172.695 161.201 159.834C157.319 172.695 153.436 185.557 149.553 198.418C145.671 211.158 141.606 223.352 137.359 235H111.333C104.903 215.465 98.8966 194.839 93.3152 173.12C87.8552 151.401 83.0019 129.986 78.7552 108.874H109.513C110.727 116.033 112.061 123.495 113.517 131.26C114.973 138.904 116.49 146.609 118.067 154.374C119.645 162.139 121.222 169.662 122.799 176.942C124.498 184.222 126.197 190.956 127.895 197.144C130.079 191.199 132.203 184.889 134.265 178.216C136.328 171.543 138.33 164.869 140.271 158.196C142.213 151.523 143.972 145.092 145.549 138.904C147.248 132.716 148.765 127.195 150.099 122.342H174.305ZM290.647 211.886C291.982 212.007 293.499 212.129 295.197 212.25C297.017 212.25 299.141 212.25 301.567 212.25C315.763 212.25 326.259 208.671 333.053 201.512C339.969 194.353 343.427 184.465 343.427 171.846C343.427 158.621 340.151 148.611 333.599 141.816C327.047 135.021 316.673 131.624 302.477 131.624C300.536 131.624 298.534 131.685 296.471 131.806C294.409 131.806 292.467 131.927 290.647 132.17V211.886ZM372.729 171.846C372.729 182.766 371.031 192.291 367.633 200.42C364.236 208.549 359.383 215.283 353.073 220.622C346.885 225.961 339.302 229.965 330.323 232.634C321.345 235.303 311.274 236.638 300.111 236.638C295.015 236.638 289.07 236.395 282.275 235.91C275.481 235.546 268.807 234.697 262.255 233.362V110.512C268.807 109.299 275.602 108.51 282.639 108.146C289.798 107.661 295.925 107.418 301.021 107.418C311.82 107.418 321.587 108.631 330.323 111.058C339.181 113.485 346.764 117.307 353.073 122.524C359.383 127.741 364.236 134.415 367.633 142.544C371.031 150.673 372.729 160.441 372.729 171.846Z" fill="#4942E4"/>
</g>
<defs>
<filter id="filter0_d_41_10" x="74.7551" y="107.418" width="301.974" height="137.22" filterUnits="userSpaceOnUse" color-interpolation-filters="sRGB">
<feFlood flood-opacity="0" result="BackgroundImageFix"/>
<feColorMatrix in="SourceAlpha" type="matrix" values="0 0 0 0 0 0 0 0 0 0 0 0 0 0 0 0 0 0 127 0" result="hardAlpha"/>
<feOffset dy="4"/>
<feGaussianBlur stdDeviation="2"/>
<feComposite in2="hardAlpha" operator="out"/>
<feColorMatrix type="matrix" values="0 0 0 0 0 0 0 0 0 0 0 0 0 0 0 0 0 0 0.25 0"/>
<feBlend mode="normal" in2="BackgroundImageFix" result="effect1_dropShadow_41_10"/>
<feBlend mode="normal" in="SourceGraphic" in2="effect1_dropShadow_41_10" result="shape"/>
</filter>
</defs>
</svg>
